<svg width="100" height="22" viewBox="0 0 100 22" fill="none" xmlns="http://www.w3.org/2000/svg">
<g filter="url(#filter0_d_1_5)">
<path d="M6.45508 8.78906C6.69727 8.84375 6.93945 8.88672 7.18164 8.91797C7.42383 8.94922 7.66797 8.96484 7.91406 8.96484C8.17188 8.96484 8.41016 8.94141 8.62891 8.89453C8.85156 8.84375 9.04297 8.76172 9.20312 8.64844C9.36719 8.53125 9.49609 8.37695 9.58984 8.18555C9.68359 7.99414 9.73047 7.75586 9.73047 7.4707C9.73047 7.24023 9.69922 7.0293 9.63672 6.83789C9.57422 6.64648 9.48047 6.48242 9.35547 6.3457C9.23438 6.20898 9.08398 6.10352 8.9043 6.0293C8.72461 5.95117 8.51562 5.91211 8.27734 5.91211C8.05469 5.91211 7.85352 5.95312 7.67383 6.03516C7.49805 6.11719 7.3418 6.22852 7.20508 6.36914C7.07227 6.50586 6.95703 6.66602 6.85938 6.84961C6.76562 7.0332 6.6875 7.22461 6.625 7.42383C6.5625 7.62305 6.51758 7.82422 6.49023 8.02734C6.46289 8.23047 6.44922 8.42188 6.44922 8.60156C6.44922 8.63281 6.44922 8.66406 6.44922 8.69531C6.44922 8.72656 6.45117 8.75781 6.45508 8.78906ZM11.3359 7.45312C11.3359 7.73047 11.291 7.97852 11.2012 8.19727C11.1113 8.41211 10.9883 8.60156 10.832 8.76562C10.6797 8.92969 10.502 9.06836 10.2988 9.18164C10.0957 9.29492 9.87891 9.38867 9.64844 9.46289C9.41797 9.5332 9.17969 9.58398 8.93359 9.61523C8.69141 9.64648 8.45508 9.66211 8.22461 9.66211C7.93164 9.66211 7.64258 9.64258 7.35742 9.60352C7.07227 9.56055 6.79102 9.49414 6.51367 9.4043C6.55664 9.66211 6.625 9.9082 6.71875 10.1426C6.8125 10.373 6.9375 10.5762 7.09375 10.752C7.25 10.9238 7.44141 11.0605 7.66797 11.1621C7.89844 11.2637 8.16992 11.3145 8.48242 11.3145C8.68945 11.3145 8.88672 11.2832 9.07422 11.2207C9.26172 11.1582 9.43359 11.0703 9.58984 10.957C9.74609 10.8438 9.88281 10.709 10 10.5527C10.1211 10.3965 10.2188 10.2227 10.293 10.0312L11.1484 10.3477C11.0195 10.6562 10.8418 10.9238 10.6152 11.1504C10.3926 11.373 10.1387 11.5586 9.85352 11.707C9.57227 11.8516 9.27148 11.959 8.95117 12.0293C8.63477 12.0996 8.32031 12.1348 8.00781 12.1348C7.49219 12.1348 7.01562 12.0488 6.57812 11.877C6.14062 11.7012 5.76367 11.457 5.44727 11.1445C5.13086 10.832 4.88281 10.459 4.70312 10.0254C4.52344 9.5918 4.43359 9.11719 4.43359 8.60156C4.43359 8.08594 4.52344 7.61133 4.70312 7.17773C4.88281 6.74414 5.13086 6.37109 5.44727 6.05859C5.76367 5.74609 6.14062 5.50391 6.57812 5.33203C7.01562 5.15625 7.49219 5.06836 8.00781 5.06836C8.25781 5.06836 8.51367 5.08594 8.77539 5.12109C9.03711 5.15625 9.29102 5.21289 9.53711 5.29102C9.7832 5.36523 10.0156 5.46289 10.2344 5.58398C10.4531 5.70508 10.6426 5.85547 10.8027 6.03516C10.9668 6.21094 11.0957 6.41602 11.1895 6.65039C11.2871 6.88477 11.3359 7.15234 11.3359 7.45312ZM40.4648 12H37.751V2.15625H40.4648V12ZM50.541 7.47461C50.541 8.00781 50.4749 8.5638 50.3428 9.14258C50.2152 9.72135 50.0352 10.2887 49.8027 10.8447C49.5703 11.4007 49.2923 11.9225 48.9688 12.4102C48.6452 12.9023 48.2897 13.3262 47.9023 13.6816L47.0342 13.21C47.1572 12.9821 47.2734 12.7269 47.3828 12.4443C47.4922 12.1618 47.5902 11.8633 47.6768 11.5488C47.7679 11.2298 47.8477 10.9017 47.916 10.5645C47.9889 10.2272 48.0482 9.89453 48.0938 9.56641C48.1439 9.23372 48.1803 8.91243 48.2031 8.60254C48.2305 8.28809 48.2441 7.99642 48.2441 7.72754C48.2441 7.5498 48.2373 7.36068 48.2236 7.16016C48.21 6.95508 48.1803 6.75228 48.1348 6.55176C48.0938 6.34668 48.0368 6.15072 47.9639 5.96387C47.891 5.77702 47.793 5.61296 47.6699 5.47168C47.5514 5.3304 47.4056 5.21647 47.2324 5.12988C47.0638 5.04329 46.8633 5 46.6309 5C46.403 5 46.2002 5.05241 46.0225 5.15723C45.8447 5.25749 45.6875 5.39193 45.5508 5.56055C45.4141 5.72461 45.2956 5.91374 45.1953 6.12793C45.0996 6.34212 45.0199 6.56315 44.9561 6.79102C44.8968 7.01432 44.8535 7.23535 44.8262 7.4541C44.7988 7.67285 44.7852 7.86882 44.7852 8.04199V12H42.4678V4.10449H43.3564L44.416 5.94336C44.5436 5.63802 44.7031 5.36003 44.8945 5.10938C45.0859 4.85872 45.3024 4.64453 45.5439 4.4668C45.7855 4.28906 46.0521 4.15234 46.3438 4.05664C46.64 3.96094 46.959 3.91309 47.3008 3.91309C47.8477 3.91309 48.3239 4.00195 48.7295 4.17969C49.1351 4.35742 49.4723 4.60579 49.7412 4.9248C50.0101 5.23926 50.2106 5.61523 50.3428 6.05273C50.4749 6.48568 50.541 6.95964 50.541 7.47461ZM54.957 12H52.6396V5.02051H51.2041V4.10449H52.6396V1.19922H54.957V4.10449H57.3496V5.02051H54.957V12ZM59.9678 8.25391C60.2503 8.31771 60.5329 8.36784 60.8154 8.4043C61.098 8.44076 61.3828 8.45898 61.6699 8.45898C61.9707 8.45898 62.2487 8.43164 62.5039 8.37695C62.7637 8.31771 62.987 8.22201 63.1738 8.08984C63.3652 7.95312 63.5156 7.77311 63.625 7.5498C63.7344 7.3265 63.7891 7.0485 63.7891 6.71582C63.7891 6.44694 63.7526 6.20085 63.6797 5.97754C63.6068 5.75423 63.4974 5.56283 63.3516 5.40332C63.2103 5.24382 63.0348 5.12077 62.8252 5.03418C62.6156 4.94303 62.3717 4.89746 62.0938 4.89746C61.834 4.89746 61.5993 4.94531 61.3896 5.04102C61.1846 5.13672 61.0023 5.2666 60.8428 5.43066C60.6878 5.59017 60.5534 5.77702 60.4395 5.99121C60.3301 6.2054 60.2389 6.42871 60.166 6.66113C60.0931 6.89355 60.0407 7.12826 60.0088 7.36523C59.9769 7.60221 59.9609 7.82552 59.9609 8.03516C59.9609 8.07161 59.9609 8.10807 59.9609 8.14453C59.9609 8.18099 59.9632 8.21745 59.9678 8.25391ZM65.6621 6.69531C65.6621 7.01888 65.6097 7.30827 65.5049 7.56348C65.4001 7.81413 65.2565 8.03516 65.0742 8.22656C64.8965 8.41797 64.6891 8.57975 64.4521 8.71191C64.2152 8.84408 63.9622 8.95345 63.6934 9.04004C63.4245 9.12207 63.1465 9.18132 62.8594 9.21777C62.5768 9.25423 62.3011 9.27246 62.0322 9.27246C61.6904 9.27246 61.3532 9.24967 61.0205 9.2041C60.6878 9.15397 60.3597 9.0765 60.0361 8.97168C60.0863 9.27246 60.166 9.55957 60.2754 9.83301C60.3848 10.1019 60.5306 10.3389 60.7129 10.5439C60.8952 10.7445 61.1185 10.904 61.3828 11.0225C61.6517 11.141 61.9684 11.2002 62.333 11.2002C62.5745 11.2002 62.8047 11.1637 63.0234 11.0908C63.2422 11.0179 63.4427 10.9154 63.625 10.7832C63.8073 10.651 63.9668 10.4938 64.1035 10.3115C64.2448 10.1292 64.3587 9.92643 64.4453 9.70312L65.4434 10.0723C65.293 10.4323 65.0856 10.7445 64.8213 11.0088C64.5615 11.2686 64.2653 11.485 63.9326 11.6582C63.6045 11.8268 63.2536 11.9521 62.8799 12.0342C62.5107 12.1162 62.1439 12.1572 61.7793 12.1572C61.1777 12.1572 60.6217 12.057 60.1113 11.8564C59.6009 11.6514 59.1611 11.3665 58.792 11.002C58.4229 10.6374 58.1335 10.2021 57.9238 9.69629C57.7142 9.19043 57.6094 8.63672 57.6094 8.03516C57.6094 7.43359 57.7142 6.87988 57.9238 6.37402C58.1335 5.86816 58.4229 5.43294 58.792 5.06836C59.1611 4.70378 59.6009 4.42122 60.1113 4.2207C60.6217 4.01562 61.1777 3.91309 61.7793 3.91309C62.071 3.91309 62.3695 3.93359 62.6748 3.97461C62.9801 4.01562 63.2764 4.08171 63.5635 4.17285C63.8506 4.25944 64.1217 4.37337 64.377 4.51465C64.6322 4.65592 64.8532 4.83138 65.04 5.04102C65.2314 5.24609 65.3818 5.48535 65.4912 5.75879C65.6051 6.03223 65.6621 6.3444 65.6621 6.69531ZM73.8174 4.80176L72.5186 6.95508C72.4639 6.77279 72.3932 6.56771 72.3066 6.33984C72.2201 6.11198 72.113 5.90007 71.9854 5.7041C71.8577 5.50358 71.7051 5.33724 71.5273 5.20508C71.3496 5.06836 71.1445 5 70.9121 5C70.6979 5 70.5111 5.05469 70.3516 5.16406C70.1966 5.27344 70.0645 5.41699 69.9551 5.59473C69.8457 5.7679 69.7546 5.96615 69.6816 6.18945C69.6133 6.4082 69.5586 6.63151 69.5176 6.85938C69.4811 7.08268 69.4561 7.29915 69.4424 7.50879C69.4287 7.71387 69.4219 7.8916 69.4219 8.04199V12H67.1045V4.10449H67.9932L68.9297 5.94336C69.0573 5.64714 69.2031 5.37598 69.3672 5.12988C69.5312 4.87923 69.7204 4.66504 69.9346 4.4873C70.1488 4.30501 70.3903 4.16374 70.6592 4.06348C70.9326 3.96322 71.2402 3.91309 71.582 3.91309C71.7598 3.91309 71.958 3.92904 72.1768 3.96094C72.3955 3.98828 72.6097 4.03841 72.8193 4.11133C73.029 4.17969 73.2227 4.27083 73.4004 4.38477C73.5781 4.4987 73.7171 4.6377 73.8174 4.80176ZM77.2148 2.19727C77.2148 2.37044 77.1807 2.53451 77.1123 2.68945C77.0485 2.8444 76.9596 2.97884 76.8457 3.09277C76.7318 3.20671 76.5973 3.29785 76.4424 3.36621C76.2874 3.43001 76.1234 3.46191 75.9502 3.46191C75.777 3.46191 75.613 3.43001 75.458 3.36621C75.3076 3.29785 75.1755 3.20671 75.0615 3.09277C74.9476 2.97884 74.8564 2.8444 74.7881 2.68945C74.7243 2.53451 74.6924 2.37044 74.6924 2.19727C74.6924 2.02409 74.7243 1.8623 74.7881 1.71191C74.8564 1.55697 74.9476 1.42253 75.0615 1.30859C75.1755 1.19466 75.3076 1.10579 75.458 1.04199C75.613 0.973633 75.777 0.939453 75.9502 0.939453C76.1234 0.939453 76.2874 0.973633 76.4424 1.04199C76.5973 1.10579 76.7318 1.19466 76.8457 1.30859C76.9596 1.42253 77.0485 1.55697 77.1123 1.71191C77.1807 1.8623 77.2148 2.02409 77.2148 2.19727ZM77.1123 12H74.7949V4.11133H77.1123V12ZM87.3936 8.03516C87.3936 8.44531 87.3389 8.8304 87.2295 9.19043C87.1201 9.55046 86.9674 9.88314 86.7715 10.1885C86.5801 10.4938 86.3477 10.7695 86.0742 11.0156C85.8008 11.2572 85.5 11.4622 85.1719 11.6309C84.8483 11.7995 84.4997 11.9294 84.126 12.0205C83.7568 12.1117 83.3763 12.1572 82.9844 12.1572C82.5924 12.1572 82.2119 12.1117 81.8428 12.0205C81.4736 11.9294 81.125 11.7995 80.7969 11.6309C80.4733 11.4622 80.1748 11.2572 79.9014 11.0156C79.6279 10.7695 79.3932 10.4938 79.1973 10.1885C79.0059 9.88314 78.8555 9.55046 78.7461 9.19043C78.6367 8.82585 78.582 8.44076 78.582 8.03516C78.582 7.62956 78.6367 7.24674 78.7461 6.88672C78.8555 6.52214 79.0059 6.18717 79.1973 5.88184C79.3932 5.5765 79.6279 5.30306 79.9014 5.06152C80.1748 4.81543 80.4733 4.60807 80.7969 4.43945C81.125 4.27083 81.4736 4.14095 81.8428 4.0498C82.2119 3.95866 82.5924 3.91309 82.9844 3.91309C83.3763 3.91309 83.7568 3.95866 84.126 4.0498C84.4997 4.14095 84.8483 4.27083 85.1719 4.43945C85.5 4.60807 85.8008 4.81543 86.0742 5.06152C86.3477 5.30306 86.5801 5.5765 86.7715 5.88184C86.9674 6.18717 87.1201 6.52214 87.2295 6.88672C87.3389 7.24674 87.3936 7.62956 87.3936 8.03516ZM85.042 8.03516C85.042 7.81641 85.0283 7.58626 85.001 7.34473C84.9782 7.09863 84.9372 6.85938 84.8779 6.62695C84.8187 6.38997 84.7367 6.16439 84.6318 5.9502C84.5316 5.73145 84.4062 5.54232 84.2559 5.38281C84.1055 5.21875 83.9255 5.08887 83.7158 4.99316C83.5062 4.8929 83.2624 4.84277 82.9844 4.84277C82.7201 4.84277 82.4854 4.8929 82.2803 4.99316C82.0752 5.09342 81.8952 5.22786 81.7402 5.39648C81.5898 5.56055 81.4622 5.75195 81.3574 5.9707C81.2572 6.18945 81.1751 6.41732 81.1113 6.6543C81.0475 6.88672 81.002 7.1237 80.9746 7.36523C80.9473 7.60221 80.9336 7.82552 80.9336 8.03516C80.9336 8.24479 80.9473 8.47038 80.9746 8.71191C81.002 8.94889 81.0475 9.18587 81.1113 9.42285C81.1751 9.65983 81.2572 9.8877 81.3574 10.1064C81.4622 10.3206 81.5898 10.512 81.7402 10.6807C81.8952 10.8447 82.0752 10.9769 82.2803 11.0771C82.4854 11.1774 82.7201 11.2275 82.9844 11.2275C83.2578 11.2275 83.4993 11.1797 83.709 11.084C83.9186 10.9837 84.0986 10.8516 84.249 10.6875C84.404 10.5234 84.5316 10.3343 84.6318 10.1201C84.7321 9.90592 84.8118 9.68034 84.8711 9.44336C84.9349 9.20638 84.9782 8.96712 85.001 8.72559C85.0283 8.48405 85.042 8.25391 85.042 8.03516ZM95.5693 4.80176L94.2705 6.95508C94.2158 6.77279 94.1452 6.56771 94.0586 6.33984C93.972 6.11198 93.8649 5.90007 93.7373 5.7041C93.6097 5.50358 93.457 5.33724 93.2793 5.20508C93.1016 5.06836 92.8965 5 92.6641 5C92.4499 5 92.263 5.05469 92.1035 5.16406C91.9486 5.27344 91.8164 5.41699 91.707 5.59473C91.5977 5.7679 91.5065 5.96615 91.4336 6.18945C91.3652 6.4082 91.3105 6.63151 91.2695 6.85938C91.2331 7.08268 91.208 7.29915 91.1943 7.50879C91.1807 7.71387 91.1738 7.8916 91.1738 8.04199V12H88.8564V4.10449H89.7451L90.6816 5.94336C90.8092 5.64714 90.9551 5.37598 91.1191 5.12988C91.2832 4.87923 91.4723 4.66504 91.6865 4.4873C91.9007 4.30501 92.1423 4.16374 92.4111 4.06348C92.6846 3.96322 92.9922 3.91309 93.334 3.91309C93.5117 3.91309 93.71 3.92904 93.9287 3.96094C94.1475 3.98828 94.3617 4.03841 94.5713 4.11133C94.7809 4.17969 94.9746 4.27083 95.1523 4.38477C95.3301 4.4987 95.4691 4.6377 95.5693 4.80176Z" fill="#50C878"/>
<path d="M15.1061 2.928C14.9381 2.928 14.7934 2.956 14.6721 3.012C14.5508 3.068 14.4901 3.138 14.4901 3.222C14.3781 3.614 14.3221 4.78533 14.3221 6.736C14.3221 8.67733 14.3174 9.76467 14.3081 9.998C14.4854 10.278 14.7608 10.418 15.1341 10.418C15.7968 10.418 16.2961 10.054 16.6321 9.326C16.9681 8.58867 17.1361 7.66933 17.1361 6.568C17.1361 5.45733 16.9728 4.57533 16.6461 3.922C16.3194 3.25933 15.8061 2.928 15.1061 2.928ZM12.4321 12.154C12.2921 12.1353 12.2221 12.0933 12.2221 12.028L12.2641 11.86C12.4974 11.356 12.6141 9.54067 12.6141 6.414C12.6141 4.92067 12.5721 3.98733 12.4881 3.614C12.4134 3.24067 12.3528 3.00267 12.3061 2.9L12.2361 2.76C12.1988 2.72267 12.1801 2.67133 12.1801 2.606C12.1801 2.53133 12.2361 2.47067 12.3481 2.424C13.0761 2.13467 14.0328 1.99 15.2181 1.99C17.7101 1.99 18.9561 3.57667 18.9561 6.75C18.9561 7.99133 18.7368 9.12533 18.2981 10.152C18.1208 10.544 17.9154 10.8847 17.6821 11.174C17.4488 11.454 17.1408 11.692 16.7581 11.888C16.3848 12.0747 15.9694 12.168 15.5121 12.168C15.4188 12.1587 15.2974 12.1447 15.1481 12.126C15.0081 12.1073 14.7934 12.0373 14.5041 11.916C14.2241 11.7947 14.0328 11.636 13.9301 11.44C13.5848 11.916 13.0854 12.154 12.4321 12.154ZM25.5976 10.264C25.5976 10.9173 25.3876 11.4027 24.9676 11.72C24.5569 12.0373 23.9782 12.196 23.2316 12.196C22.0369 12.196 21.1549 11.7993 20.5856 11.006C20.0256 10.2127 19.7456 9.17667 19.7456 7.898C19.7456 7.69267 19.7549 7.394 19.7736 7.002H18.9896C18.9149 7.002 18.8776 6.974 18.8776 6.918C18.8776 6.75933 18.9569 6.568 19.1156 6.344C19.2742 6.12 19.4469 6.008 19.6336 6.008H19.8996C20.0209 5.336 20.2169 4.74333 20.4876 4.23C20.7676 3.71667 21.0569 3.32 21.3556 3.04C21.6636 2.76 21.9996 2.536 22.3636 2.368C22.9422 2.088 23.5489 1.948 24.1836 1.948C24.8182 1.948 25.2149 2.05067 25.3736 2.256C25.4482 2.35867 25.4856 2.55 25.4856 2.83C25.4856 3.10067 25.4529 3.236 25.3876 3.236C25.3782 3.236 25.3362 3.21733 25.2616 3.18C25.0189 3.068 24.7156 3.012 24.3516 3.012C23.5582 3.012 22.9376 3.292 22.4896 3.852C22.0509 4.412 21.7569 5.13067 21.6076 6.008C22.3169 5.99867 23.2782 5.994 24.4916 5.994C24.5849 5.994 24.6316 6.02667 24.6316 6.092C24.6316 6.24133 24.5569 6.43267 24.4076 6.666C24.2582 6.89 24.0902 7.002 23.9036 7.002H21.4956C21.4862 7.114 21.4816 7.36133 21.4816 7.744C21.4816 8.11733 21.5469 8.514 21.6776 8.934C21.8176 9.34467 22.0696 9.69467 22.4336 9.984C22.8069 10.2733 23.2876 10.418 23.8756 10.418C24.4636 10.418 24.9582 10.2873 25.3596 10.026C25.4062 9.98867 25.4482 9.97 25.4856 9.97C25.5602 9.97 25.5976 10.068 25.5976 10.264ZM31.5131 7.618L31.4991 5.952C31.4991 4.3 31.4431 3.20333 31.3311 2.662C31.3124 2.59667 31.3031 2.54533 31.3031 2.508C31.3031 2.34933 31.4618 2.214 31.7791 2.102C32.0964 1.99 32.3484 1.934 32.5351 1.934C32.7218 1.934 32.8151 1.99 32.8151 2.102C32.8151 2.11133 32.8058 2.16267 32.7871 2.256C32.5724 3.404 32.4651 5.22867 32.4651 7.73C32.4651 9.438 32.5631 10.6653 32.7591 11.412C32.7964 11.5333 32.8151 11.5987 32.8151 11.608C32.8151 11.804 32.6004 11.9627 32.1711 12.084C31.7418 12.2147 31.4384 12.28 31.2611 12.28C30.9811 12.28 30.7898 12.2147 30.6871 12.084C30.4818 11.8227 30.1458 11.09 29.6791 9.886C29.2218 8.67267 28.8204 7.54333 28.4751 6.498L27.9431 4.93C27.9244 4.88333 27.9011 4.86 27.8731 4.86C27.8358 4.86 27.7938 4.89267 27.7471 4.958C27.7004 5.826 27.6771 6.694 27.6771 7.562C27.6771 8.43 27.6818 9.09733 27.6911 9.564C27.7098 10.0307 27.7284 10.3853 27.7471 10.628C27.7658 10.8707 27.7844 11.0667 27.8031 11.216C27.8218 11.356 27.8358 11.4587 27.8451 11.524C27.8638 11.5893 27.8731 11.636 27.8731 11.664C27.8731 11.8413 27.7191 11.9767 27.4111 12.07C27.1031 12.1727 26.8231 12.224 26.5711 12.224C26.3284 12.224 26.2071 12.168 26.2071 12.056C26.2071 12 26.2211 11.93 26.2491 11.846C26.2771 11.762 26.3098 11.6547 26.3471 11.524C26.4404 11.1973 26.5058 10.6047 26.5431 9.746C26.5804 8.878 26.5991 7.89333 26.5991 6.792C26.5991 5.68133 26.5851 4.874 26.5571 4.37C26.5104 3.54867 26.4264 2.998 26.3051 2.718C26.2771 2.69 26.2631 2.65267 26.2631 2.606C26.2631 2.45667 26.5104 2.312 27.0051 2.172C27.4998 2.032 27.8824 1.962 28.1531 1.962C28.4331 1.962 28.5964 1.96667 28.6431 1.976C28.7738 1.96667 28.8531 2.04133 28.8811 2.2C29.1518 3.18 29.5298 4.33267 30.0151 5.658C30.5098 6.98333 30.9484 7.996 31.3311 8.696C31.3778 8.74267 31.4151 8.766 31.4431 8.766C31.4898 8.766 31.5131 8.38333 31.5131 7.618Z" fill="black"/>
</g>
<defs>
<filter id="filter0_d_1_5" x="0.433594" y="0.939453" width="99.1357" height="20.7422" filterUnits="userSpaceOnUse" color-interpolation-filters="sRGB">
<feFlood flood-opacity="0" result="BackgroundImageFix"/>
<feColorMatrix in="SourceAlpha" type="matrix" values="0 0 0 0 0 0 0 0 0 0 0 0 0 0 0 0 0 0 127 0" result="hardAlpha"/>
<feOffset dy="4"/>
<feGaussianBlur stdDeviation="2"/>
<feComposite in2="hardAlpha" operator="out"/>
<feColorMatrix type="matrix" values="0 0 0 0 0 0 0 0 0 0 0 0 0 0 0 0 0 0 0.25 0"/>
<feBlend mode="normal" in2="BackgroundImageFix" result="effect1_dropShadow_1_5"/>
<feBlend mode="normal" in="SourceGraphic" in2="effect1_dropShadow_1_5" result="shape"/>
</filter>
</defs>
</svg>
